# File created by Blade
# Date/Time:  Fri Jan 16 14:33:41 2015
# Frame Rate: 120.000 fps
#------------------------------------------------------
:FULLY-SPECIFIED
:DEGREES
2381
root 19.824366 35.689193 -23.531771 -176.568820 -3.542512 -178.899582
Spine -7.660589 4.772673 -0.937592
Head 3.591786 -12.942636 -1.692732
LeftShoulder -1.736891 -15.219198 -10.776092
LeftArm -9.181136 28.339271 -73.667250
LeftForeArm -1.176163 -0.000000 5.621989
LeftHand -0.935723 0.000000 -2.277598
LeftHandThumb1 -26.253704 0.000000 33.147579
RightShoulder 9.770335 -8.530913 2.382476
RightArm 45.489583 6.711269 81.933915
RightForeArm 9.423347 -0.000000 5.327910
RightHand -10.842941 -0.000000 -14.483418
RightHandThumb1 -24.326973 -0.000000 -32.862282
LeftUpLeg 2.785150 9.622016 2.324755
LeftLeg -4.658246 -0.000000 0.000000
LeftFoot -19.057161 25.487030 -13.747804
LeftToeBase 25.550501 -0.000000 -0.000000
RightUpLeg 2.861035 -14.010278 3.563506
RightLeg -3.760792 -0.000000 0.000000
RightFoot -19.904488 -23.692235 14.771897
RightToeBase 23.173540 -0.000000 -0.000000
2382
root 19.821427 35.689550 -23.526951 -176.565746 -3.550930 -178.897963
Spine -7.647504 4.798283 -0.912697
Head 3.603555 -12.884748 -1.766392
LeftShoulder -1.725119 -15.204469 -10.810464
LeftArm -9.142285 28.463092 -73.678160
LeftForeArm -1.162567 -0.000000 5.601416
LeftHand -0.876157 -0.000000 -2.383619
LeftHandThumb1 -26.253704 0.000000 33.147579
RightShoulder 9.919595 -8.534667 2.229951
RightArm 45.946855 6.124943 81.447819
RightForeArm 9.496090 -0.000000 5.739252
RightHand -11.105947 0.000000 -15.059955
RightHandThumb1 -24.326973 -0.000000 -32.862282
LeftUpLeg 2.782306 9.608146 2.320510
LeftLeg -4.675536 -0.000000 0.000000
LeftFoot -19.042625 25.489389 -13.739377
LeftToeBase 25.551804 -0.000000 -0.000000
RightUpLeg 2.852368 -14.036234 3.561695
RightLeg -3.764021 -0.000000 0.000000
RightFoot -19.887775 -23.679272 14.761175
RightToeBase 23.170212 -0.000000 -0.000000
2383
root 19.817921 35.690084 -23.523116 -176.561938 -3.551108 -178.893382
Spine -7.645667 4.841024 -0.895304
Head 3.640584 -12.851463 -1.816035
LeftShoulder -1.690041 -15.198251 -10.837933
LeftArm -9.148160 28.574390 -73.723230
LeftForeArm -1.056475 -0.000000 5.609193
LeftHand -0.896019 -0.000000 -2.393091
LeftHandThumb1 -26.253704 0.000000 33.147579
RightShoulder 10.044384 -8.517455 2.097300
RightArm 46.401449 5.237439 80.557900
RightForeArm 9.460846 -0.000000 6.080916
RightHand -11.243043 -0.000000 -15.428228
RightHandThumb1 -24.326973 -0.000000 -32.862282
LeftUpLeg 2.780555 9.612425 2.316764
LeftLeg -4.694398 -0.000000 0.000000
LeftFoot -19.035289 25.498422 -13.736122
LeftToeBase 25.556595 -0.000000 -0.000000
RightUpLeg 2.841473 -14.066740 3.562425
RightLeg -3.765212 -0.000000 0.000000
RightFoot -19.874450 -23.653290 14.767135
RightToeBase 23.225795 -0.000000 -0.000000
2384
root 19.817651 35.690782 -23.516923 -176.510746 -3.493576 -178.891040
Spine -7.707488 4.969893 -0.907388
Head 3.702567 -12.855258 -1.850509
LeftShoulder -1.629981 -15.166316 -10.851481
LeftArm -9.139727 28.663893 -73.749416
LeftForeArm -0.948643 0.000000 5.615546
LeftHand -0.927459 -0.000000 -2.446570
LeftHandThumb1 -26.253704 0.000000 33.147579
RightShoulder 10.112847 -8.471823 1.984124
RightArm 46.846882 4.556789 79.897520
RightForeArm 9.017501 -0.000000 6.471693
RightHand -11.121414 -0.000000 -15.720304
RightHandThumb1 -24.326973 -0.000000 -32.862282
LeftUpLeg 2.741200 9.675266 2.306249
LeftLeg -4.721181 -0.000000 0.000000
LeftFoot -19.005475 25.492755 -13.737462
LeftToeBase 25.516002 -0.000000 -0.000000
RightUpLeg 2.767635 -13.995296 3.578322
RightLeg -3.753653 -0.000000 0.000000
RightFoot -19.868645 -23.685731 14.768126
RightToeBase 23.230370 -0.000000 -0.000000
